<?xml version="1.0"?>
<svg width="95" height="95" xmlns="http://www.w3.org/2000/svg" xmlns:svg="http://www.w3.org/2000/svg">
 <title>Liitle Bee</title>
 <defs>
  <linearGradient id="linearGradient3068" x1="0.44075" x2="1.42456" y1="0.89195" y2="0.89195">
   <stop id="stop15924-76" offset="0" stop-color="#fff"/>
   <stop id="stop15926-1" offset="1" stop-color="#a2ffff"/>
  </linearGradient>
  <linearGradient id="linearGradient3172" x1="1.02367" x2="-0.02366" y1="0.49999" y2="0.49999">
   <stop id="stop15924-2" offset="0" stop-color="#fff"/>
   <stop id="stop15926-2" offset="1" stop-color="#a2ffff"/>
  </linearGradient>
 </defs>
 <metadata>image/svg+xmlOpenclipartBee2013-09-20T13:44:12A bee - it&#x27;s a slightly altered version of &#x27;Bee&#x27; by forestgreen (http://openclipart.org/detail/118099/bee-by-forestgreen) - I just got rid of the white gradients to get a flatter, less 3D look.https://openclipart.org/detail/183607/bee-by-anarres-183607anarresbeebumblebee</metadata>
 <g class="layer">
  <title>Layer 1</title>
  <g id="layer1" transform="rotate(45, 45.2538, 40.4031)">
   <g id="g3950">
    <path d="m25.250204,27.060282a-12.976348,12.976348 0 1 1 25.952697,0a-12.976348,12.976348 0 1 1 -25.952697,0z" id="path15590" stroke="#000" stroke-width="1.8"/>
    <path d="m36.962431,50.927853c2.708585,13.183264 15.176643,25.112877 27.84701,26.644444c12.670367,1.532583 20.746043,-7.912206 18.037467,-21.096497c-2.709602,-13.183264 -15.176643,-25.111861 -27.848026,-26.644444c-12.670367,-1.531557 -20.745026,7.913232 -18.036441,21.096497l-0.000009,0z" fill="#ff0" id="path15590-7" stroke="#000" stroke-width="1.8"/>
    <path d="m45.578604,36.869989c-19.004016,1.634754 -47.134034,11.460647 -36.57761,26.564752s31.673356,-8.582455 36.57761,-26.564752z" fill="url(#linearGradient3172)" id="path14800" stroke="#000" stroke-width="1.8"/>
    <path d="m68.215855,35.158611c2.235121,1.559047 4.321575,3.382818 6.194188,5.427896c-1.674298,0.129285 -3.627107,0.30415 -5.843019,0.606651c-5.525469,0.754319 -12.021571,2.310215 -15.102062,4.406168l-0.127718,0.095786c-3.023992,2.130184 -7.014725,7.829043 -9.929905,12.963598c-0.655263,1.154036 -1.235771,2.239408 -1.788011,3.288717c-1.460146,-2.241038 -2.665468,-4.62206 -3.544145,-7.088188c2.089009,-6.221768 4.645666,-13.230264 9.227367,-16.347533c4.623489,-3.145985 12.688751,-3.398445 19.47605,-3.352471c0.83229,0.005615 0.666026,-0.003985 1.436742,0l0.000513,-0.000614l0,-0.000009zm10.504312,11.142886c1.146268,1.869242 2.122727,3.824817 2.873594,5.843019c-1.205222,0.117734 -2.496475,0.260392 -3.863335,0.447c-5.78478,0.789732 -12.579426,2.403391 -15.805003,4.597741l-0.159641,0.095786c-3.165909,2.23011 -7.32492,8.194711 -10.376603,13.569479c-0.17688,0.311524 -0.308455,0.587415 -0.478932,0.89401c-1.856363,-1.359294 -3.607285,-2.896173 -5.204446,-4.597741c2.202117,-6.573752 4.913359,-14.065009 9.770209,-17.369261c4.840509,-3.293618 13.263982,-3.528307 20.371077,-3.480189c1.661218,0.01123 1.46392,-0.005212 2.873594,0l-0.000513,0.000156zm4.37419,11.590408c0.259137,1.726913 0.327847,3.382717 0.223505,4.949009c-4.491896,0.625896 -9.702361,1.878741 -12.197306,3.576021l-0.095786,0.095786c-2.47767,1.745307 -5.753416,6.39383 -8.141894,10.600355c-0.024952,0.043932 -0.039068,0.083897 -0.063855,0.127718c-1.65028,-0.339498 -3.280235,-0.842549 -4.885054,-1.500706c0.165888,-0.475287 0.311295,-0.903921 0.478932,-1.404865c1.729267,-5.167357 3.838401,-11.094869 7.662907,-13.697188c3.788232,-2.577596 10.403167,-2.783477 15.964387,-2.745875c0.609747,0.004085 0.483613,-0.003169 1.053596,0l0.000559,-0.000256l0.000009,0z" id="path15630"/>
    <path d="m46.290742,37.808956c-12.103306,9.385533 -26.791572,28.273061 -13.089264,33.857795s17.619578,-19.59252 13.089264,-33.857795z" fill="url(#linearGradient3172)" id="path14800-1" stroke="#000" stroke-width="1.8"/>
    <path d="m26.472418,22.15721c-10.089491,-0.204342 -11.343151,-1.07536 -13.435632,1.711387c-2.092179,2.786747 -3.21791,7.445384 -0.613035,7.458565c2.604875,0.013227 2.457243,-4.605508 3.211681,-6.500389c0.754448,-1.894881 5.626211,-2.350263 10.837398,-2.669554l-0.000412,0l0,-0.000009z" id="path15841" stroke="#000" stroke-width="1px"/>
    <path d="m37.263842,15.371962c-0.000348,-10.091543 -0.84581,-11.362561 1.982652,-13.397829c2.828435,-2.035368 7.508835,-3.066797 7.469392,-0.462133c-0.039425,2.604673 -4.654249,2.363645 -6.563941,3.079676c-1.909702,0.715994 -2.463572,5.577571 -2.888103,10.781202l0,-0.000907l0,-0.000009z" id="path15841-2" stroke="#000" stroke-width="1px"/>
    <g fill="url(#linearGradient3068)" id="g15882" stroke="#000" stroke-width="1.8" transform="matrix(0, -1.02172, 1.02172, 0, 18.6147, 73.7287)">
     <path d="m36.32108,26.788646c18.6,1.6 46.132,11.217 35.8,26s-31,-8.4 -35.8,-26z" id="path14800-4"/>
     <path d="m35.62408,27.707646c11.846,9.186 26.222,27.671 12.811,33.137s-17.245,-19.176 -12.811,-33.137z" id="path14800-1-5"/>
    </g>
    <path d="m78.362569,73.398565l5.443734,9.665382l-8.33224,-7.554608l2.888506,-2.110774z" id="path15886" stroke-width="0"/>
   </g>
  </g>
 </g>
</svg>